<svg width="665" height="208" viewBox="0 0 665 208" fill="none" xmlns="http://www.w3.org/2000/svg">
<rect width="166.25" height="200" transform="translate(0 8)" fill="white"/>
<path d="M58.377 106.7C60.281 106.7 61.667 108.016 61.667 109.934C61.667 111.838 60.281 113.154 58.377 113.154C56.473 113.154 55.087 111.838 55.087 109.934C55.087 109.164 55.311 108.506 55.689 107.974L58.979 103.2H59.819L57.313 106.854C57.649 106.756 57.999 106.7 58.377 106.7ZM58.377 112.44C59.931 112.44 60.925 111.39 60.925 109.934C60.925 108.464 59.931 107.414 58.377 107.414C56.823 107.414 55.843 108.464 55.843 109.934C55.843 111.39 56.823 112.44 58.377 112.44ZM65.7318 107.19C67.4958 107.19 68.9938 108.282 68.9938 110.172C68.9938 112.062 67.4958 113.154 65.7318 113.154C64.3318 113.154 63.0858 112.468 62.6378 111.18L63.2678 110.816C63.5898 111.866 64.5278 112.44 65.7318 112.44C67.1878 112.44 68.2518 111.586 68.2518 110.172C68.2518 108.758 67.1878 107.904 65.7318 107.904H63.1138L63.4498 103.2H68.6298V103.9H64.1078L63.8838 107.19H65.7318ZM77.7245 113.154C75.3725 113.154 74.0565 111.124 74.0565 108.1C74.0565 105.076 75.3725 103.046 77.7245 103.046C80.0765 103.046 81.3925 105.076 81.3925 108.1C81.3925 111.124 80.0765 113.154 77.7245 113.154ZM77.7245 112.44C79.5445 112.44 80.6365 110.844 80.6365 108.1C80.6365 105.356 79.5445 103.76 77.7245 103.76C75.9045 103.76 74.8125 105.356 74.8125 108.1C74.8125 110.844 75.9045 112.44 77.7245 112.44ZM86.5428 113.154C84.1908 113.154 82.8748 111.124 82.8748 108.1C82.8748 105.076 84.1908 103.046 86.5428 103.046C88.8948 103.046 90.2108 105.076 90.2108 108.1C90.2108 111.124 88.8948 113.154 86.5428 113.154ZM86.5428 112.44C88.3628 112.44 89.4548 110.844 89.4548 108.1C89.4548 105.356 88.3628 103.76 86.5428 103.76C84.7228 103.76 83.6308 105.356 83.6308 108.1C83.6308 110.844 84.7228 112.44 86.5428 112.44ZM95.3612 113.154C93.0092 113.154 91.6932 111.124 91.6932 108.1C91.6932 105.076 93.0092 103.046 95.3612 103.046C97.7132 103.046 99.0292 105.076 99.0292 108.1C99.0292 111.124 97.7132 113.154 95.3612 113.154ZM95.3612 112.44C97.1812 112.44 98.2732 110.844 98.2732 108.1C98.2732 105.356 97.1812 103.76 95.3612 103.76C93.5412 103.76 92.4492 105.356 92.4492 108.1C92.4492 110.844 93.5412 112.44 95.3612 112.44ZM108.304 108.982H105.7V110.438H109.424V111.054H105.7V113H104.944V111.054H103.684V110.438H104.944V108.982H103.684V108.282H104.944V103.2H108.304C109.9 103.2 111.202 104.502 111.202 106.098C111.202 107.68 109.9 108.982 108.304 108.982ZM105.7 103.9V108.282H108.304C109.494 108.282 110.46 107.302 110.46 106.098C110.46 104.88 109.494 103.9 108.304 103.9H105.7Z" fill="black"/>
<rect width="166.25" height="150" transform="translate(166.25 58)" fill="white"/>
<path d="M223.675 128.2H224.305V138H223.563V129.012L221.295 129.726L221.113 129.082L223.675 128.2ZM229.597 132.274C231.151 132.428 232.411 133.45 232.411 135.172C232.411 137.062 230.913 138.154 229.177 138.154C227.749 138.154 226.531 137.496 226.055 136.292L226.671 135.928C227.035 136.908 227.945 137.44 229.177 137.44C230.605 137.44 231.669 136.586 231.669 135.172C231.669 133.758 230.605 132.904 229.149 132.904H228.939L228.617 132.414L231.095 128.9H226.307V128.2H231.949V128.9L229.597 132.274ZM243.565 131V138H242.865V131.686H239.337V135.06C239.337 137.51 238.301 138.098 236.985 138V137.342C238.063 137.44 238.637 136.866 238.637 135.06V131H243.565ZM250.881 131H251.497V138H250.783V132.218L246.331 138H245.715V131H246.415V136.782L250.881 131ZM259.398 137.314H260.378V139.876H259.664V138H253.616V139.876H252.902V137.314H253.714C254.204 136.642 254.484 135.886 254.484 134.5V131H259.398V137.314ZM254.582 137.314H258.684V131.686H255.184V134.5C255.184 135.746 254.974 136.6 254.582 137.314ZM264.848 138.154C262.804 138.154 261.166 136.572 261.166 134.5C261.166 132.428 262.804 130.846 264.848 130.846C266.878 130.846 268.516 132.428 268.516 134.5C268.516 136.572 266.878 138.154 264.848 138.154ZM264.848 137.482C266.514 137.482 267.802 136.166 267.802 134.5C267.802 132.834 266.514 131.518 264.848 131.518C263.182 131.518 261.88 132.834 261.88 134.5C261.88 136.166 263.182 137.482 264.848 137.482ZM274.513 134.388C275.325 134.654 275.745 135.27 275.745 136.068C275.745 137.132 275.045 138 273.589 138H270.201V131H273.323C274.695 131 275.409 131.812 275.409 132.834C275.409 133.52 275.115 134.094 274.513 134.388ZM273.323 131.686H270.901V134.108H273.323C274.219 134.108 274.695 133.66 274.695 132.876C274.695 132.134 274.205 131.686 273.323 131.686ZM273.589 137.314C274.527 137.314 275.045 136.838 275.045 136.04C275.045 135.27 274.513 134.794 273.589 134.794H270.901V137.314H273.589Z" fill="black"/>
<rect width="166.25" height="100" transform="translate(332.5 108)" fill="white"/>
<path d="M393.286 155V154.328L396.884 150.632C397.738 149.75 398.466 148.826 398.466 147.86C398.466 146.516 397.5 145.76 396.31 145.76C395.246 145.76 394.434 146.264 393.972 147.244L393.342 146.866C393.93 145.662 395.036 145.046 396.31 145.046C397.808 145.046 399.222 146.04 399.222 147.86C399.222 149.078 398.382 150.156 397.388 151.164L394.35 154.286H399.446V155H393.286ZM407.873 149.274C409.427 149.428 410.687 150.45 410.687 152.172C410.687 154.062 409.189 155.154 407.453 155.154C406.025 155.154 404.807 154.496 404.331 153.292L404.947 152.928C405.311 153.908 406.221 154.44 407.453 154.44C408.881 154.44 409.945 153.586 409.945 152.172C409.945 150.758 408.881 149.904 407.425 149.904H407.215L406.893 149.414L409.371 145.9H404.583V145.2H410.225V145.9L407.873 149.274ZM415.756 155.154C413.404 155.154 412.088 153.124 412.088 150.1C412.088 147.076 413.404 145.046 415.756 145.046C418.108 145.046 419.424 147.076 419.424 150.1C419.424 153.124 418.108 155.154 415.756 155.154ZM415.756 154.44C417.576 154.44 418.668 152.844 418.668 150.1C418.668 147.356 417.576 145.76 415.756 145.76C413.936 145.76 412.844 147.356 412.844 150.1C412.844 152.844 413.936 154.44 415.756 154.44ZM420.213 145.2H426.149V145.9L422.341 155H421.571L425.379 145.9H420.213V145.2ZM435.288 150.982H432.684V152.438H436.408V153.054H432.684V155H431.928V153.054H430.668V152.438H431.928V150.982H430.668V150.282H431.928V145.2H435.288C436.884 145.2 438.186 146.502 438.186 148.098C438.186 149.68 436.884 150.982 435.288 150.982ZM432.684 145.9V150.282H435.288C436.478 150.282 437.444 149.302 437.444 148.098C437.444 146.88 436.478 145.9 435.288 145.9H432.684ZM368.828 167.388C369.682 167.668 370.158 168.326 370.158 169.124C370.158 170.188 369.304 171.154 367.582 171.154C366.014 171.154 365.202 170.426 364.852 169.502L365.454 169.152C365.72 169.936 366.364 170.482 367.582 170.482C368.772 170.482 369.444 169.894 369.444 169.082C369.444 168.326 368.856 167.794 367.904 167.794H366.938V167.108H367.638C368.548 167.108 369.108 166.604 369.108 165.82C369.108 165.078 368.45 164.518 367.456 164.518C366.532 164.518 365.86 164.924 365.566 165.652L364.978 165.316C365.356 164.462 366.182 163.846 367.456 163.846C368.94 163.846 369.808 164.756 369.808 165.792C369.808 166.478 369.472 167.08 368.828 167.388ZM377.862 164H378.576V171H377.862V169.418C377.274 170.468 376.196 171.154 374.852 171.154C372.864 171.154 371.226 169.572 371.226 167.5C371.226 165.428 372.864 163.846 374.852 163.846C376.196 163.846 377.274 164.532 377.862 165.582V164ZM374.908 170.482C376.574 170.482 377.862 169.166 377.862 167.5C377.862 165.834 376.574 164.518 374.908 164.518C373.242 164.518 371.94 165.834 371.94 167.5C371.94 169.166 373.242 170.482 374.908 170.482ZM387.664 171.154C385.62 171.154 383.982 169.572 383.982 167.5C383.982 165.428 385.62 163.846 387.664 163.846C389.694 163.846 391.332 165.428 391.332 167.5C391.332 169.572 389.694 171.154 387.664 171.154ZM387.664 170.482C389.33 170.482 390.618 169.166 390.618 167.5C390.618 165.834 389.33 164.518 387.664 164.518C385.998 164.518 384.696 165.834 384.696 167.5C384.696 169.166 385.998 170.482 387.664 170.482ZM398.483 170.314H399.463V172.876H398.749V171H392.701V172.876H391.987V170.314H392.799C393.289 169.642 393.569 168.886 393.569 167.5V164H398.483V170.314ZM393.667 170.314H397.769V164.686H394.269V167.5C394.269 168.746 394.059 169.6 393.667 170.314ZM406.069 164H406.783V171H406.069V167.836H401.701V171H401.001V164H401.701V167.164H406.069V164ZM412.15 171.154C410.106 171.154 408.468 169.572 408.468 167.5C408.468 165.428 410.106 163.846 412.15 163.846C414.18 163.846 415.818 165.428 415.818 167.5C415.818 169.572 414.18 171.154 412.15 171.154ZM412.15 170.482C413.816 170.482 415.104 169.166 415.104 167.5C415.104 165.834 413.816 164.518 412.15 164.518C410.484 164.518 409.182 165.834 409.182 167.5C409.182 169.166 410.484 170.482 412.15 170.482ZM421.885 164V164.686H418.203V171H417.503V164H421.885ZM426.068 171.154C424.024 171.154 422.386 169.572 422.386 167.5C422.386 165.428 424.024 163.846 426.068 163.846C428.098 163.846 429.736 165.428 429.736 167.5C429.736 169.572 428.098 171.154 426.068 171.154ZM426.068 170.482C427.734 170.482 429.022 169.166 429.022 167.5C429.022 165.834 427.734 164.518 426.068 164.518C424.402 164.518 423.1 165.834 423.1 167.5C423.1 169.166 424.402 170.482 426.068 170.482ZM440.837 164V171H440.137V164.686H436.609V168.06C436.609 170.51 435.573 171.098 434.257 171V170.342C435.335 170.44 435.909 169.866 435.909 168.06V164H440.837ZM448.153 164H448.769V171H448.055V165.218L443.603 171H442.987V164H443.687V169.782L448.153 164ZM456.671 170.314H457.651V172.876H456.937V171H450.889V172.876H450.175V170.314H450.987C451.477 169.642 451.757 168.886 451.757 167.5V164H456.671V170.314ZM451.855 170.314H455.957V164.686H452.457V167.5C452.457 168.746 452.247 169.6 451.855 170.314ZM465.075 164H465.789V171H465.075V169.418C464.487 170.468 463.409 171.154 462.065 171.154C460.077 171.154 458.439 169.572 458.439 167.5C458.439 165.428 460.077 163.846 462.065 163.846C463.409 163.846 464.487 164.532 465.075 165.582V164ZM462.121 170.482C463.787 170.482 465.075 169.166 465.075 167.5C465.075 165.834 463.787 164.518 462.121 164.518C460.455 164.518 459.153 165.834 459.153 167.5C459.153 169.166 460.455 170.482 462.121 170.482Z" fill="black"/>
<rect width="166.25" height="50" transform="translate(498.75 158)" fill="white"/>
<path d="M572.047 185.242V185.942H570.787V188H570.045V185.942H564.767V185.242L568.491 178.2H569.303L565.593 185.242H570.045V182.162H570.787V185.242H572.047ZM582.951 187.314H583.931V189.876H583.217V188H577.169V189.876H576.455V187.314H577.267C577.757 186.642 578.037 185.886 578.037 184.5V181H582.951V187.314ZM578.135 187.314H582.237V181.686H578.737V184.5C578.737 185.746 578.527 186.6 578.135 187.314ZM590.537 181H591.251V188H590.537V184.836H586.169V188H585.469V181H586.169V184.164H590.537V181ZM598.256 181V188H597.556V185.27H596.044L593.846 188H592.936L595.176 185.256C594.07 185.13 593.174 184.318 593.174 183.142C593.174 181.854 594.238 181 595.484 181H598.256ZM595.484 184.598H597.556V181.686H595.484C594.602 181.686 593.888 182.26 593.888 183.142C593.888 184.038 594.602 184.598 595.484 184.598Z" fill="black"/>
</svg>
