<svg width="24" height="25" viewBox="0 0 24 25" fill="none" xmlns="http://www.w3.org/2000/svg">
<path d="M8 12.5H16" stroke="white" stroke-width="2" stroke-linecap="round" stroke-linejoin="round"/>
<g clip-path="url(#clip0_166_52)">
<mask id="mask0_166_52" style="mask-type:luminance" maskUnits="userSpaceOnUse" x="0" y="0" width="24" height="25">
<path d="M24 0.5H0V24.5H24V0.5Z" fill="white"/>
</mask>
<g mask="url(#mask0_166_52)">
<path d="M15 7.5H18C18.6566 7.5 19.3068 7.62933 19.9134 7.8806C20.52 8.13188 21.0712 8.50017 21.5355 8.96447C21.9998 9.42876 22.3681 9.97996 22.6194 10.5866C22.8707 11.1932 23 11.8434 23 12.5C23 13.1566 22.8707 13.8068 22.6194 14.4134C22.3681 15.02 21.9998 15.5712 21.5355 16.0355C21.0712 16.4998 20.52 16.8681 19.9134 17.1194C19.3068 17.3707 18.6566 17.5 18 17.5H15M9 17.5H6C5.34339 17.5 4.69321 17.3707 4.08658 17.1194C3.47995 16.8681 2.92876 16.4998 2.46447 16.0355C1.5268 15.0978 1 13.8261 1 12.5C1 11.1739 1.5268 9.90215 2.46447 8.96447C3.40215 8.02678 4.67392 7.5 6 7.5H9" stroke="white" stroke-width="2" stroke-linecap="round" stroke-linejoin="round"/>
</g>
</g>
<g clip-path="url(#clip1_166_52)">
<mask id="mask1_166_52" style="mask-type:luminance" maskUnits="userSpaceOnUse" x="0" y="0" width="24" height="25">
<path d="M0 0.5H24V24.5H0V0.5Z" fill="white"/>
</mask>
<g mask="url(#mask1_166_52)">
<path d="M9 7.5H6C5.34339 7.5 4.69321 7.62933 4.08658 7.8806C3.47995 8.13188 2.92876 8.50017 2.46447 8.96447C2.00017 9.42876 1.6319 9.97996 1.3806 10.5866C1.1293 11.1932 1 11.8434 1 12.5C1 13.1566 1.1293 13.8068 1.3806 14.4134C1.6319 15.02 2.00017 15.5712 2.46447 16.0355C2.92876 16.4998 3.47995 16.8681 4.08658 17.1194C4.69321 17.3707 5.34339 17.5 6 17.5H9M15 17.5H18C18.6566 17.5 19.3068 17.3707 19.9134 17.1194C20.5201 16.8681 21.0712 16.4998 21.5355 16.0355C22.4732 15.0978 23 13.8261 23 12.5C23 11.1739 22.4732 9.90215 21.5355 8.96447C20.5979 8.02678 19.3261 7.5 18 7.5H15" stroke="white" stroke-width="2" stroke-linecap="round" stroke-linejoin="round"/>
</g>
</g>
<defs>
<clipPath id="clip0_166_52">
<rect width="12" height="14" fill="white" transform="translate(12 5.5)"/>
</clipPath>
<clipPath id="clip1_166_52">
<rect width="12" height="14" fill="white" transform="matrix(-1 0 0 1 12 5.5)"/>
</clipPath>
</defs>
</svg>
