<svg width="76" height="15" viewBox="0 0 76 15" fill="none" xmlns="http://www.w3.org/2000/svg">
<path d="M12.28 0.6V14H9.26V3.38H3.58V14H0.56V0.6H12.28ZM21.3833 0.6C22.1833 0.6 22.9033 0.719999 23.5633 0.96C24.2033 1.2 24.7633 1.52 25.2433 1.94C25.7233 2.36 26.0833 2.86 26.3433 3.46C26.5833 4.06 26.7233 4.72 26.7233 5.44C26.7233 6.22 26.5633 6.92 26.2833 7.52C26.0033 8.12 25.6033 8.64 25.1033 9.06C24.6033 9.48 24.0233 9.8 23.3433 10.02C22.6633 10.24 21.9233 10.34 21.1433 10.34H18.4233V14H15.4233V0.6H21.3833ZM18.4233 7.68H21.1433C21.9433 7.68 22.5633 7.48 23.0233 7.08C23.4633 6.68 23.7033 6.14 23.7033 5.46C23.7033 4.8 23.4833 4.28 23.0833 3.88C22.6833 3.48 22.0633 3.28 21.2633 3.28H18.4233V7.68ZM35.7514 0.32C36.7914 0.32 37.7714 0.5 38.6514 0.86C39.5314 1.22 40.2714 1.7 40.8914 2.32C41.5114 2.96 41.9914 3.7 42.3514 4.54C42.6914 5.38 42.8714 6.3 42.8714 7.3C42.8714 8.26 42.6914 9.18 42.3514 10.02C41.9914 10.86 41.5114 11.6 40.8914 12.24C40.2514 12.88 39.5114 13.38 38.6314 13.74C37.7514 14.1 36.7914 14.28 35.7514 14.28C34.7114 14.28 33.7514 14.12 32.8914 13.76C32.0114 13.4 31.2714 12.92 30.6314 12.28C29.9914 11.66 29.5114 10.92 29.1714 10.06C28.8114 9.22 28.6514 8.3 28.6514 7.3C28.6514 6.34 28.8114 5.44 29.1714 4.58C29.5114 3.74 29.9914 3 30.6314 2.36C31.2714 1.74 32.0114 1.24 32.8914 0.88C33.7514 0.52 34.7114 0.32 35.7514 0.32ZM35.7514 3C35.1114 3 34.5314 3.12 34.0114 3.34C33.4914 3.58 33.0714 3.88 32.7114 4.26C32.3514 4.66 32.0914 5.1 31.9114 5.62C31.7114 6.14 31.6314 6.7 31.6314 7.3C31.6314 7.9 31.7114 8.48 31.9114 9C32.0914 9.52 32.3714 9.98 32.7314 10.36C33.0914 10.76 33.5114 11.06 34.0314 11.28C34.5314 11.5 35.1114 11.6 35.7514 11.6C36.3914 11.6 36.9714 11.5 37.4914 11.26C38.0114 11.04 38.4314 10.74 38.7914 10.34C39.1514 9.94 39.4114 9.48 39.5914 8.96C39.7714 8.44 39.8714 7.9 39.8714 7.3C39.8714 6.7 39.7714 6.12 39.5914 5.6C39.3914 5.08 39.1314 4.62 38.7714 4.22C38.4114 3.84 37.9914 3.54 37.4714 3.32C36.9514 3.12 36.3914 3 35.7514 3ZM54.5195 0.32V2.1H55.6995C56.4995 2.1 57.2195 2.22 57.8995 2.44C58.5795 2.66 59.1595 2.98 59.6395 3.42C60.1195 3.86 60.4995 4.38 60.7795 5C61.0395 5.64 61.1795 6.34 61.1795 7.14C61.1795 7.96 61.0195 8.68 60.7395 9.32C60.4395 9.96 60.0395 10.48 59.5395 10.92C59.0395 11.36 58.4595 11.7 57.7995 11.92C57.1195 12.16 56.4195 12.26 55.6995 12.26H54.5195V14H51.5395V12.26H50.3595C49.5595 12.26 48.8195 12.16 48.1395 11.94C47.4595 11.72 46.8995 11.4 46.4195 10.96C45.9395 10.52 45.5595 10 45.2995 9.36C45.0195 8.74 44.8995 8.02 44.8995 7.22C44.8995 6.42 45.0395 5.7 45.3395 5.06C45.6195 4.42 46.0195 3.88 46.5195 3.44C47.0195 3 47.5995 2.68 48.2595 2.44C48.9195 2.22 49.6195 2.1 50.3595 2.1H51.5395V0.32H54.5195ZM54.5195 9.68H55.5995C56.4395 9.68 57.0795 9.46 57.5195 9C57.9595 8.56 58.1795 7.94 58.1795 7.16C58.1795 6.38 57.9395 5.78 57.4795 5.34C57.0195 4.92 56.3995 4.7 55.5995 4.7H54.5195V9.68ZM51.5395 4.68H50.4595C49.6195 4.68 48.9795 4.92 48.5395 5.36C48.0995 5.82 47.8795 6.44 47.8795 7.2C47.8795 8 48.0995 8.6 48.5595 9.02C49.0195 9.46 49.6595 9.66 50.4595 9.66H51.5395V4.68ZM66.5864 0.6V9.52L73.0664 0.6H75.7064V14H72.7264V5.58L66.5664 14H63.6264V0.6H66.5864Z" fill="url(#paint0_linear_80_223)"/>
<defs>
<linearGradient id="paint0_linear_80_223" x1="-1" y1="14" x2="78" y2="-1.60187e-07" gradientUnits="userSpaceOnUse">
<stop stop-color="#9D9A8E"/>
<stop offset="1" stop-color="white"/>
</linearGradient>
</defs>
</svg>
