<svg width="14" height="14" viewBox="0 0 14 14" fill="none" xmlns="http://www.w3.org/2000/svg">
<path d="M11.9545 2.0497C10.6342 0.728736 8.87854 0.000700035 7.00805 0C3.15366 0 0.0168009 3.13546 0.0154008 6.98985C0.0147008 8.22191 0.336717 9.42457 0.948547 10.4844L0 14.0007L3.66328 13.1348C4.68463 13.692 5.83409 13.9853 7.00455 13.986H7.00735C10.861 13.986 13.9979 10.8498 14 6.99615C14.0014 5.12776 13.2748 3.37137 11.9545 2.0497ZM10.4291 9.48827C10.2835 9.89639 9.57018 10.2898 9.24956 10.3185C8.92894 10.3479 8.62863 10.4634 7.15296 9.88169C5.37697 9.18166 4.25551 7.36087 4.16871 7.24466C4.0812 7.12775 3.45537 6.29751 3.45537 5.43787C3.45537 4.57823 3.90689 4.15541 4.0672 3.9811C4.22751 3.80609 4.41652 3.76269 4.53343 3.76269C4.64963 3.76269 4.76654 3.76269 4.86804 3.76689C4.99265 3.77179 5.13056 3.77809 5.26146 4.0686C5.41687 4.41442 5.75639 5.27826 5.79979 5.36577C5.84319 5.45327 5.87259 5.55548 5.81449 5.67168C5.75639 5.78789 5.72699 5.86069 5.64018 5.9629C5.55268 6.0651 5.45677 6.19041 5.37837 6.26881C5.29086 6.35562 5.19986 6.45082 5.30136 6.62513C5.40357 6.80014 5.75359 7.37207 6.27301 7.83479C6.94085 8.42982 7.50297 8.61393 7.67798 8.70213C7.85299 8.78964 7.9545 8.77494 8.0567 8.65803C8.15891 8.54183 8.49352 8.14841 8.60973 7.9734C8.72593 7.79839 8.84284 7.82779 9.00315 7.88589C9.16346 7.944 10.0224 8.36682 10.1967 8.45432C10.3717 8.54183 10.4879 8.58523 10.5313 8.65803C10.5747 8.73013 10.5747 9.08015 10.4291 9.48827Z" fill="url(#paint0_linear_113_84)"/>
<defs>
<linearGradient id="paint0_linear_113_84" x1="-0.0301078" y1="14.0007" x2="2.32847" y2="-1.73985" gradientUnits="userSpaceOnUse">
<stop stop-color="#9D9A8E"/>
<stop offset="1" stop-color="white"/>
</linearGradient>
</defs>
</svg>
